<svg width="35" height="31" viewBox="0 0 35 31" fill="none" xmlns="http://www.w3.org/2000/svg">
<path d="M34.9399 15.6829C34.9399 17.0656 34.1467 18.254 32.8693 18.7837L4.8165 30.4231C3.65961 30.9031 2.3198 30.7147 1.33205 29.86C0.365015 29.0227 -0.0396667 27.7317 0.276826 26.4923L2.7742 16.7005L3.03365 15.6818L2.77428 14.6631L0.277607 4.87111C-0.0387967 3.63172 0.365978 2.34075 1.33308 1.50348C2.28951 0.676068 3.62343 0.445163 4.81756 0.940658L32.8695 12.5822C34.1469 13.1119 34.94 14.3004 34.9399 15.6829Z" fill="white"/>
<path d="M2.77432 16.7004L0.27688 26.4923C-0.0396135 27.7317 0.365068 29.0226 1.33211 29.86C2.31986 30.7147 3.65966 30.9031 4.81655 30.4231L32.8693 18.7836C34.1467 18.254 34.9399 17.0656 34.94 15.6829L3.03377 15.6817L2.77432 16.7004Z" fill="white"/>
<path d="M16.0175 15.6822C16.0175 16.2445 15.5618 16.7009 14.9988 16.7009L2.77434 16.7004L3.03378 15.6818L2.77441 14.6631L14.9989 14.6635C15.5619 14.6636 16.0176 15.12 16.0175 15.6822Z" fill="url(#paint0_linear_21_2)"/>
<path d="M2.77438 16.7006L14.9989 16.701C15.5618 16.701 16.0176 16.2447 16.0176 15.6824L3.03382 15.6819L2.77438 16.7006Z" fill="url(#paint1_linear_21_2)"/>
<defs>
<linearGradient id="paint0_linear_21_2" x1="12.167" y1="14.7206" x2="12.0116" y2="17.2648" gradientUnits="userSpaceOnUse">
<stop stop-color="#747DEF"/>
<stop offset="1" stop-color="#5E3BE1"/>
</linearGradient>
<linearGradient id="paint1_linear_21_2" x1="12.167" y1="15.7108" x2="12.128" y2="16.9864" gradientUnits="userSpaceOnUse">
<stop stop-color="#747DEF"/>
<stop offset="1" stop-color="#5E3BE1"/>
</linearGradient>
</defs>
</svg>
