<svg width="139" height="96" viewBox="0 0 139 96" fill="none" xmlns="http://www.w3.org/2000/svg">
<path d="M74.8863 63.0348C73.5719 62.5766 72.1506 62.3574 70.7111 62.3903C66.9871 62.4334 63.9277 63.8963 63.8781 65.6572C63.8286 67.4182 66.8077 68.8101 70.5316 68.7669C71.9703 68.7662 73.4045 68.5141 74.7458 68.0264C75.3796 67.7819 75.7983 67.2468 75.8139 66.6621L75.8783 64.3745C75.8965 63.7895 75.507 63.2641 74.8863 63.0348Z" fill="#D5D6DB"/>
<path d="M82.4269 35.9429C81.4737 35.6108 80.443 35.452 79.399 35.4759C76.6994 35.5071 74.4804 36.5674 74.4445 37.8432C74.4086 39.1191 76.5697 40.1286 79.269 40.0973C80.3123 40.0965 81.3523 39.9134 82.3251 39.5598C82.7843 39.3824 83.0876 38.9947 83.0989 38.5708L83.1455 36.9144C83.1589 36.4904 82.877 36.1093 82.4269 35.9429Z" fill="#D5D6DB"/>
<path d="M70.9447 30.1429C70.7714 30.0064 70.5419 29.9327 70.3013 29.9358L63.9599 30.0096C63.43 30.015 62.9891 30.3855 62.9755 30.8376C62.9723 30.9411 62.9923 31.0436 63.0344 31.1392L69.4394 45.8112L90.5848 45.5651L70.9447 30.1429Z" fill="#029BC5"/>
<path d="M119.515 58.7942L62.1685 59.1447L31.7489 53.7028L17.7738 48.4503L17.8494 45.2751L112.921 45.5226C115.758 45.5245 118.523 46.1619 120.938 47.3705C121.992 47.9052 122.959 48.5519 123.817 49.2953C124.582 49.9478 125.23 50.6922 125.741 51.5064C126.307 52.4212 127.837 53.4359 127.839 54.5589C127.841 54.5586 126.725 59.0144 119.515 58.7942V58.7942Z" fill="#E1E6E9"/>
<path d="M64.8477 56.0499L29.3543 73.4066C28.8835 73.6677 28.738 74.197 29.029 74.5888C29.2075 74.8292 29.5201 74.9721 29.8594 74.9686L36.1878 74.908C37.4051 74.8961 38.6154 74.6723 39.7438 74.2506L99.5871 55.0661L64.8477 56.0499Z" fill="#029BC5"/>
<path d="M20.4304 27.1502C20.196 26.8638 19.8092 26.6966 19.3921 26.7014L14.1552 26.7608C13.4417 26.7687 12.8495 27.2678 12.832 27.8757C12.8288 27.9913 12.8467 28.106 12.8855 28.2154L18.1703 43.1656L33.5131 43.126L20.4304 27.1502Z" fill="#029BC5"/>
<path d="M20.7517 46.8722L10.1707 51.2834C10.017 51.3457 9.94773 51.5008 10.016 51.6296C10.0653 51.7224 10.1757 51.7798 10.297 51.7755L15.184 51.7312C15.222 51.7308 15.2601 51.7245 15.2958 51.7125L29.8082 46.7938L20.7517 46.8722Z" fill="#029BC5"/>
<path d="M122.928 49.2168C122.045 48.4502 121.049 47.7847 119.962 47.2354C118.088 48.015 116.468 49.1925 115.265 50.6503C115.05 50.9602 115.165 51.3503 115.521 51.5218C115.632 51.5749 115.758 51.6026 115.887 51.6018L124.906 51.5002C124.381 50.6583 123.715 49.8895 122.928 49.2168Z" fill="#029BC5"/>
<path d="M104.144 48.0376L110.019 47.9932L109.798 57.1188L103.923 57.1633L104.144 48.0376Z" fill="#D5D6DB"/>
<path d="M99.8473 49.0325C99.1388 49.0389 98.5511 49.5318 98.5351 50.1336L98.5091 51.1086C98.517 51.7097 99.098 52.1754 99.8071 52.1487C100.482 52.1231 101.036 51.6587 101.074 51.0857L101.1 50.1107C101.116 49.5093 100.555 49.0267 99.8473 49.0325V49.0325Z" fill="#3A556A"/>
<path d="M94.5921 49.0325C93.8836 49.0389 93.2958 49.5318 93.2798 50.1336L93.2538 51.1086C93.2617 51.7097 93.8428 52.1754 94.5518 52.1487C95.2267 52.1231 95.7805 51.6587 95.8188 51.0857L95.8448 50.1107C95.8605 49.5093 95.2999 49.0267 94.5921 49.0325V49.0325Z" fill="#3A556A"/>
<path d="M89.3351 49.0324C88.6269 49.0395 88.0403 49.5321 88.0243 50.1334L87.9984 51.1084C88.0063 51.7095 88.5873 52.1752 89.2963 52.1485C89.9712 52.123 90.525 51.6586 90.5633 51.0855L90.5893 50.1105C90.6053 49.5087 90.0438 49.0261 89.3351 49.0324V49.0324Z" fill="#3A556A"/>
<path d="M84.0801 49.0324C83.3719 49.0395 82.7853 49.5321 82.7693 50.1335L82.7433 51.1085C82.7512 51.7096 83.3323 52.1752 84.0413 52.1486C84.7162 52.123 85.27 51.6586 85.3083 51.0855L85.3343 50.1105C85.35 49.5087 84.7886 49.0261 84.0801 49.0324V49.0324Z" fill="#3A556A"/>
<path d="M78.8252 49.0328C78.1166 49.0399 77.5297 49.5327 77.5138 50.1343L77.4878 51.1097C77.4719 51.7111 78.0331 52.1934 78.7413 52.1872C79.4496 52.1809 80.0367 51.6883 80.0527 51.087L80.0786 50.1115C80.0955 49.5102 79.5349 49.0273 78.8267 49.0328C78.8261 49.0328 78.8258 49.0328 78.8252 49.0328Z" fill="#3A556A"/>
<path d="M73.5699 49.0328C72.8613 49.0398 72.2745 49.5326 72.2585 50.1342L72.2326 51.1097C72.2166 51.711 72.7778 52.1934 73.4861 52.1871C74.1944 52.1808 74.7815 51.6883 74.7975 51.0869L74.8234 50.1115C74.8402 49.5101 74.2797 49.0272 73.5714 49.0328C73.5708 49.0328 73.5702 49.0328 73.5699 49.0328Z" fill="#3A556A"/>
<path d="M68.3144 49.0327C67.6058 49.0397 67.019 49.5325 67.003 50.1341L66.9771 51.1095C66.962 51.7108 67.5241 52.1924 68.2321 52.1854C68.9389 52.1784 69.5248 51.6868 69.5416 51.0868L69.5675 50.1114C69.5838 49.5098 69.0229 49.0269 68.3144 49.0327Z" fill="#3A556A"/>
<path d="M63.059 49.0326C62.3504 49.0396 61.7636 49.5324 61.7476 50.134L61.7217 51.1095C61.7066 51.7108 62.2687 52.1924 62.9767 52.1854C63.6835 52.1783 64.2694 51.6868 64.2862 51.0867L64.3122 50.1113C64.3285 49.5097 63.7676 49.0268 63.059 49.0326Z" fill="#3A556A"/>
<path d="M57.8039 49.0325C57.0953 49.0396 56.5085 49.5324 56.4925 50.1339L56.4666 51.1094C56.4515 51.7107 57.0136 52.1923 57.7216 52.1853C58.4284 52.1782 59.0143 51.6867 59.0311 51.0867L59.057 50.1112C59.073 49.5097 58.5121 49.0268 57.8039 49.0325Z" fill="#3A556A"/>
<path d="M52.5471 49.0324C51.8388 49.0387 51.2517 49.5312 51.2357 50.1326L51.2357 50.1338L51.2097 51.1093C51.1947 51.7106 51.7568 52.1922 52.4648 52.1852C53.1715 52.1781 53.7574 51.6866 53.7743 51.0865L53.8002 50.1111C53.8165 49.5095 53.2556 49.0266 52.5471 49.0324Z" fill="#3A556A"/>
<path d="M47.2933 49.0324C46.585 49.0386 45.9979 49.5312 45.9819 50.1325L45.9819 50.1338L45.956 51.1092C45.9409 51.7105 46.5031 52.1921 47.211 52.1851C47.9178 52.1781 48.5037 51.6866 48.5205 51.0865L48.5464 50.1111C48.5624 49.5095 48.0015 49.0266 47.2933 49.0324Z" fill="#3A556A"/>
</svg>
